<svg width="1440" height="1024" viewBox="0 0 1440 1024" fill="none" xmlns="http://www.w3.org/2000/svg">
<rect width="1440" height="1024" fill="white"/>
<path fill-rule="evenodd" clip-rule="evenodd" d="M1001 848C1003.36 835.697 1005.73 826.189 1008.09 819.477C1010.46 812.765 1015.03 802.606 1021.81 789C1027.16 801.753 1030.79 811.131 1032.69 817.133C1034.59 823.135 1035.53 828.215 1035.53 832.371C1035.74 828.4 1036.84 824.102 1038.84 819.477C1040.84 814.853 1044.46 808.211 1049.72 799.55C1055.53 810.015 1059.63 817.96 1062.01 823.385C1064.4 828.809 1067.39 837.015 1071 848H1001ZM836 878C837.957 865.697 839.917 856.189 841.878 849.477C843.84 842.765 847.628 832.606 853.243 819C857.679 831.753 860.684 841.131 862.257 847.133C863.83 853.135 864.613 858.215 864.608 862.371C864.78 858.4 865.695 854.102 867.351 849.477C869.008 844.853 872.012 838.211 876.365 829.55C881.183 840.015 884.58 847.96 886.554 853.385C888.529 858.809 891.011 867.015 894 878H836Z" fill="#FF946A"/>
<path fill-rule="evenodd" clip-rule="evenodd" d="M775.738 856.453V803.852H831.478V856.453" fill="#F4E5AD"/>
<path fill-rule="evenodd" clip-rule="evenodd" d="M888.892 858.691V825.675H961.911V846.94V869.883" fill="#F4E5AD"/>
<path fill-rule="evenodd" clip-rule="evenodd" d="M961.354 935.914V846.38H1062.8V935.405" fill="#F4E5AD"/>
<path fill-rule="evenodd" clip-rule="evenodd" d="M770.165 891.147V837.427H781.313V846.94H788.002V837.427H799.707V846.94H806.396V837.427H818.102V846.94H824.79V837.427H838.725V894.504" fill="#AFA26E"/>
<path fill-rule="evenodd" clip-rule="evenodd" d="M1053.88 935.914V803.852H1108.51V935.163" fill="#DACA8B"/>
<path fill-rule="evenodd" clip-rule="evenodd" d="M759.017 890.028V935.354H853.775V920.685C853.775 903.753 867.501 890.028 884.432 890.028C901.363 890.028 915.089 903.753 915.089 920.685V935.354H966.37V846.939H951.878L949.648 858.691H939.615V846.939H920.106V858.691H910.072V846.939H891.121V858.691H881.645V846.939H862.693V864.846H844.299L827.02 890.028H759.017Z" fill="#DACA8B"/>
<path fill-rule="evenodd" clip-rule="evenodd" d="M754 924.722H858.792V935.913H754V924.722ZM912.302 924.722H971.387V935.913H912.302V924.722Z" fill="#AFA26E"/>
<path fill-rule="evenodd" clip-rule="evenodd" d="M788.002 878.836V860.911C788.002 858.449 789.998 856.452 792.461 856.452C794.924 856.452 796.92 858.449 796.92 860.911V878.836H788.002ZM995.913 906.815V888.891C995.913 886.428 997.909 884.432 1000.37 884.432C1002.83 884.432 1004.83 886.428 1004.83 888.891V906.815H995.913ZM811.97 878.836V860.911C811.97 858.449 813.967 856.452 816.429 856.452C818.892 856.452 820.889 858.449 820.889 860.911V878.836H811.97ZM1019.88 906.815V888.891C1019.88 886.428 1021.88 884.432 1024.34 884.432C1026.8 884.432 1028.8 886.428 1028.8 888.891V906.815H1019.88ZM1077.29 856.452V838.528C1077.29 836.065 1079.29 834.069 1081.75 834.069C1084.22 834.069 1086.21 836.065 1086.21 838.528V856.452H1077.29ZM1077.29 905.696V887.772C1077.29 885.309 1079.29 883.312 1081.75 883.312C1084.22 883.312 1086.21 885.309 1086.21 887.772V905.696H1077.29ZM935.713 924.722V906.784C935.713 902.475 939.207 898.981 943.517 898.981C947.827 898.981 951.321 902.475 951.321 906.784V924.722H935.713Z" fill="#334E62"/>
<path fill-rule="evenodd" clip-rule="evenodd" d="M910.231 760.021L927.352 721.592L949.581 771.486C951.291 774.526 952.986 777.481 954.664 780.349C960.767 790.778 970.057 805.887 982.534 825.675C958.413 828.559 939.735 830 926.5 830C913.264 830 894.41 828.559 869.939 825.675C883.719 805.567 893.566 790.459 899.481 780.349C903.123 774.124 906.707 767.348 910.231 760.021ZM762.918 803.851C772.729 794.384 779.418 784.684 782.984 774.753C786.551 764.822 793.612 746.542 804.166 719.914C814.688 746.06 821.748 764.34 825.347 774.753C828.946 785.166 835.449 794.866 844.856 803.851C831.85 806.09 818.101 807.209 803.608 807.209C789.116 807.209 775.552 806.09 762.918 803.851ZM1040.5 806.09C1050.32 796.622 1057 786.922 1060.57 776.991C1064.14 767.06 1071.2 748.78 1081.75 722.152C1092.27 748.298 1099.33 766.578 1102.93 776.991C1106.53 787.405 1113.03 797.104 1122.44 806.09C1109.44 808.328 1095.69 809.447 1081.19 809.447C1066.7 809.447 1053.14 808.328 1040.5 806.09Z" fill="#334E62"/>
<path fill-rule="evenodd" clip-rule="evenodd" d="M866.399 430.74C879.55 478.73 878.184 517.639 862.302 547.469C846.419 577.299 840.393 614.924 844.225 660.345L883.858 609.921C883.281 638.891 883.643 661.004 884.942 676.262C886.242 691.519 889.044 706.552 893.349 721.359L912.617 678.755C921.012 697.418 930.19 712.984 940.153 725.454C950.116 737.924 966.286 754.084 988.662 773.933C992.857 743.651 994.878 720.66 994.723 704.959C994.569 689.258 992.17 673.887 987.528 658.845L1014.77 687.62C1016.58 672.913 1014.76 659.464 1009.31 647.274C1003.87 635.083 996.056 618.332 985.884 597.02L1028.8 629.886C1015.72 589.568 991.902 555.851 957.363 528.735C922.825 501.619 901.695 469.534 893.976 432.479C889.355 430.375 885.236 429.179 881.619 428.892C878.002 428.605 872.928 429.221 866.399 430.74Z" fill="#FF946A"/>
<path fill-rule="evenodd" clip-rule="evenodd" d="M878.339 430.852C884.206 457.265 888.652 479.179 891.677 496.596C893.717 508.34 895.692 525.385 897.603 547.733C899.618 571.295 909.919 593.382 926.676 610.069L941.128 624.462L942.969 617.272C949.398 592.16 945.826 565.533 933.004 543.005C922.088 523.825 913.775 508.171 908.066 496.044C899.247 477.311 891.261 455 884.106 429.11L878.339 430.852Z" fill="#FFE676"/>
<path fill-rule="evenodd" clip-rule="evenodd" d="M711 706.657C706.5 717.777 702.235 725.691 698.207 730.397C696.09 732.87 693.39 735.769 690.106 739.095C689.182 740.031 687.673 740.04 686.737 739.116C686 738.387 685.818 737.266 686.288 736.342L691.533 726.02C692.11 724.884 691.657 723.494 690.52 722.917C690.392 722.852 690.258 722.799 690.121 722.759C688.545 722.3 686.858 722.96 686.012 724.366L674.697 743.188C674.127 744.135 672.899 744.441 671.952 743.872C671.283 743.47 670.909 742.715 670.994 741.94L673.314 720.801L689.302 699L711 706.657Z" fill="#437BA6"/>
<path fill-rule="evenodd" clip-rule="evenodd" d="M511 694.66L425.858 590L274.289 636.988C272.707 637.479 271.821 639.16 272.312 640.742C272.67 641.898 273.688 642.725 274.892 642.84L349.622 649.977L369.086 691.125C369.765 692.56 371.444 693.218 372.917 692.626L417.294 674.783L449.966 700.178C450.489 700.585 451.132 700.807 451.795 700.81L498.657 701L511 694.66Z" fill="#334E62"/>
<path fill-rule="evenodd" clip-rule="evenodd" d="M612.31 679.499L645.615 728.561L656.941 701.39C658.613 697.381 661.261 693.855 664.646 691.133C675.836 682.134 692.202 683.91 701.201 695.1L711 707.285L701.888 707.157C695.835 707.073 690.194 710.213 687.077 715.403L653.688 771L613.923 742.316L616.71 850.905L646.645 880.736L676.742 887.856C678.095 888.177 679.255 889.046 679.941 890.257C681.302 892.659 680.458 895.711 678.055 897.072L633.456 922.343C633.447 922.349 633.438 922.354 633.428 922.359C621.407 929.151 606.156 924.911 599.365 912.889L567.503 856.491H534.512V916.253L554.093 927.192C555.358 927.899 556.142 929.235 556.142 930.684C556.142 932.893 554.351 934.684 552.142 934.684H483.819C483.093 934.684 482.367 934.64 481.646 934.553C471.778 933.353 464.751 924.38 465.95 914.512L473.004 856.491L368.034 912.391C362.953 915.096 357.428 916.866 351.722 917.615L220 934.913L426.034 780.531L475.11 669.924C475.871 668.209 476.81 666.609 477.901 665.143L476.099 665.145L494.515 229.642C496.739 177.064 539.332 135.205 591.942 133.898L869.5 127C922.5 125.333 949 155.667 949 218C949 227.372 938.167 277.372 916.5 368C930.129 380.063 931.399 400.89 919.337 414.519C918.574 415.381 917.767 416.202 916.918 416.979C916.853 417.039 916.788 417.099 916.724 417.16C914.562 419.193 912.224 420.975 909.752 422.493L910.665 427.805C911.018 429.855 910.873 431.959 910.244 433.942C908.071 440.785 900.763 444.571 893.92 442.398L878.653 437.551L866.702 444.562C865.432 445.307 864.045 445.831 862.599 446.111C855.551 447.478 848.729 442.872 847.362 435.824L843.726 417.073L843.5 417L821 368L736 300L666.659 295.868C657.033 295.295 648.666 302.409 647.682 312.001L611.849 661.537L612.31 679.499Z" fill="#7AC6FF"/>
<path fill-rule="evenodd" clip-rule="evenodd" d="M922.125 313.994C927.276 309.888 939.607 313.394 938.742 323.205C937.878 333.016 930.948 348.612 919.283 338.716C907.618 328.82 916.974 318.1 922.125 313.994ZM827.063 317.71C829.577 311.622 842.063 308.71 846.063 317.71C850.063 326.71 851.563 343.71 836.563 340.71C821.563 337.71 824.548 323.798 827.063 317.71Z" fill="white"/>
<path fill-rule="evenodd" clip-rule="evenodd" d="M918.055 328.801C918.079 327.421 919.218 326.321 920.599 326.345L931.597 326.537C932.978 326.561 934.077 327.7 934.053 329.08C934.029 330.461 932.89 331.56 931.51 331.536L920.511 331.344C919.131 331.32 918.031 330.182 918.055 328.801ZM830.501 328.86C830.525 327.48 831.664 326.38 833.045 326.404L844.043 326.596C845.423 326.62 846.523 327.759 846.499 329.14C846.475 330.52 845.336 331.62 843.956 331.596L832.957 331.404C831.577 331.38 830.477 330.241 830.501 328.86Z" fill="#334E62"/>
<path fill-rule="evenodd" clip-rule="evenodd" d="M472.651 855.914L457 940L552.451 939.5C556.869 939.477 560.432 935.877 560.409 931.459C560.402 930.107 560.052 928.78 559.394 927.6L558.174 925.417L538.051 915.888L534.697 856.474L472.651 855.914Z" fill="#437BA6"/>
<path fill-rule="evenodd" clip-rule="evenodd" d="M445.651 571.015L313.698 592.652C312.063 592.92 310.955 594.463 311.223 596.098C311.418 597.29 312.31 598.249 313.485 598.53L398.848 618.967L405.044 661.018C405.276 662.593 406.699 663.712 408.284 663.568L471.311 657.827L485.57 687.995C486.009 688.922 486.891 689.561 487.908 689.689L546.492 697.055L556.591 708.04C558.157 709.744 560.73 710.053 562.655 708.769C564.558 707.5 565.198 705.001 564.141 702.973L559.713 694.478C559.445 693.965 559.183 693.449 558.926 692.931L516.524 607.379C503.452 581.005 474.698 566.252 445.651 571.015Z" fill="#437BA6"/>
<path fill-rule="evenodd" clip-rule="evenodd" d="M482.849 520.752L421.195 564.548C419.845 565.507 417.972 565.19 417.012 563.839C416.381 562.951 416.281 561.79 416.752 560.807L488.6 410.68L432.172 437.844C430.679 438.563 428.887 437.935 428.168 436.442C427.786 435.649 427.772 434.728 428.129 433.924L492.008 290.027L453.878 310.228C452.414 311.004 450.599 310.446 449.823 308.982C449.38 308.145 449.357 307.148 449.763 306.293L500.248 199.744L482.849 520.752ZM704.043 130.298L649.72 190.629C647.872 192.682 644.71 192.847 642.658 191C641.169 189.659 640.625 187.559 641.274 185.664L656.554 141.045L564.496 208.343C562.266 209.972 559.138 209.486 557.508 207.257C556.438 205.793 556.244 203.864 557.003 202.216L588.109 134.615L704.043 130.298Z" fill="#334E62"/>
<path fill-rule="evenodd" clip-rule="evenodd" d="M426 781L382.088 789.738C380.463 790.062 379.408 791.641 379.731 793.266C379.795 793.584 379.909 793.889 380.07 794.171L386.333 805.113L348.876 814.92C347.273 815.34 346.314 816.979 346.733 818.582C346.879 819.14 347.183 819.644 347.609 820.034L355.773 827.516L316.133 837.621C314.528 838.03 313.558 839.663 313.967 841.269C314.207 842.211 314.889 842.978 315.796 843.327L328.547 848.237L285.514 864.876C283.968 865.474 283.2 867.211 283.797 868.756C284.165 869.708 284.991 870.407 285.99 870.613L302.432 874L426 781Z" fill="#334E62"/>
<path fill-rule="evenodd" clip-rule="evenodd" d="M858.793 345.601C858.671 351.563 828.377 317.834 790.24 233.561C776.608 203.437 754.416 143.469 723.665 53.6592L781.806 150.83L793.643 84.6801L815.83 208.257L833.471 178.67C850.538 280.799 858.979 336.442 858.793 345.601ZM915.856 340.729C913.147 344.465 908.935 309.54 922.1 238.994C926.806 213.777 939.293 165.779 959.562 95.0002L953.319 182.649L990 145.868L949.416 234.299L973.611 223.343C939.27 295.861 920.019 334.99 915.856 340.729Z" fill="#334E62"/>
<path d="M916.93 368.036C916.726 368.549 916.145 368.8 915.631 368.596C915.118 368.393 914.867 367.811 915.071 367.298C924.291 344.078 940.765 338.181 963.948 349.773C970.389 352.993 977.058 359.115 984.928 368.546C988.115 372.365 991.456 376.663 995.587 382.2C997.802 385.168 1005.49 395.636 1006.54 397.056C1021.31 416.993 1031.1 428.242 1041.97 436.283C1055.77 446.489 1069.12 448.964 1083.09 442.591C1088.2 440.256 1092.82 437.952 1096.93 435.68C1111.75 427.497 1117.13 408.852 1108.95 394.035C1107.39 391.224 1105.41 388.675 1103.07 386.48C1095.82 379.693 1084.44 380.066 1077.65 387.313C1077.13 387.874 1076.64 388.467 1076.19 389.089L1073.31 393.085C1072.99 393.533 1072.36 393.635 1071.92 393.312C1071.47 392.989 1071.37 392.364 1071.69 391.916L1074.57 387.919C1075.07 387.228 1075.61 386.569 1076.19 385.946C1083.74 377.892 1096.38 377.478 1104.43 385.021C1106.93 387.358 1109.04 390.074 1110.7 393.068C1119.41 408.852 1113.68 428.714 1097.9 437.431C1093.74 439.729 1089.08 442.055 1083.92 444.41C1069.23 451.113 1055.13 448.5 1040.78 437.891C1029.7 429.696 1019.82 418.338 1004.94 398.247C1003.88 396.821 996.194 386.357 993.984 383.396C989.873 377.885 986.552 373.614 983.393 369.828C975.684 360.591 969.192 354.631 963.053 351.561C940.902 340.486 925.71 345.923 916.93 368.036ZM847.572 371.036C838.792 348.923 823.6 343.486 801.449 354.561C793.275 358.648 785.211 368.42 774.679 385.632C772.945 388.464 771.135 391.507 768.975 395.202C768.129 396.65 767.262 398.141 766.109 400.129C766.228 399.924 763.882 403.973 763.228 405.099C749.449 428.836 741.654 440.355 732.203 448.946C719.709 460.303 707.207 461.991 693.913 452.309C671.336 435.867 667.312 417.294 682.019 397.043C688.877 387.602 702.089 385.507 711.53 392.364C714.915 394.822 717.494 398.229 718.94 402.155C719.131 402.673 718.865 403.248 718.347 403.439C717.829 403.63 717.254 403.364 717.063 402.846C715.754 399.292 713.419 396.207 710.355 393.982C701.807 387.774 689.846 389.671 683.638 398.218C669.61 417.532 673.367 434.872 695.09 450.692C707.559 459.772 719.022 458.225 730.858 447.466C740.1 439.065 747.828 427.645 761.499 404.095C762.152 402.97 764.498 398.921 764.379 399.126C765.533 397.136 766.401 395.643 767.248 394.193C769.414 390.487 771.231 387.433 772.973 384.588C783.697 367.062 791.931 357.084 800.554 352.773C823.737 341.181 840.211 347.078 849.431 370.298C849.635 370.811 849.384 371.393 848.871 371.596C848.357 371.8 847.776 371.549 847.572 371.036Z" fill="#334E62"/>
<path fill-rule="evenodd" clip-rule="evenodd" d="M848.5 370.5C863.072 371.946 872.905 376.446 878 384C883.095 391.554 881.428 401.887 873 415L848.5 370.5Z" fill="#437BA6"/>
</svg>
