<svg width="1440" height="1024" viewBox="0 0 1440 1024" fill="none" xmlns="http://www.w3.org/2000/svg">
<rect width="1440" height="1024" fill="white"/>
<path d="M197 924C261.617 924 314 871.617 314 807C314 742.383 261.617 690 197 690C132.383 690 80 742.383 80 807C80 871.617 132.383 924 197 924Z" fill="#CDFFE6"/>
<path fill-rule="evenodd" clip-rule="evenodd" d="M1205.84 879.41C1200.6 870.576 1195 859.527 1189.03 846.263L1185.1 848.021C1180.91 849.893 1175.98 848.305 1173.67 844.338C1171.32 840.287 1172.16 835.134 1175.69 832.045L1180.94 827.443C1171.12 803.675 1160.42 774.502 1148.82 739.924L1215.32 486.5C1207.66 623.837 1212.16 720.606 1228.82 776.805C1253.82 861.104 1281.82 919.06 1306.82 911.684C1323.49 906.766 1338.82 915.372 1352.82 937.5C1343.49 937.5 1328.16 937.5 1306.82 937.5C1296.16 937.5 1245.5 928.651 1217.52 896.153L1211.1 899.021C1206.91 900.893 1201.98 899.305 1199.67 895.338C1197.32 891.287 1198.16 886.134 1201.69 883.045L1205.84 879.41ZM1053 516L1069.82 629C992.25 678.85 942.75 699.683 921.324 691.5C889.185 679.226 873.877 643.31 841.324 571C820.002 523.637 793.565 427.887 762.015 283.748C761.015 279.182 759.617 274.712 757.837 270.39C749.93 251.191 753.759 243.727 769.324 248C794.824 255 896.24 559.805 936.168 571.227C962.786 578.842 1001.73 560.433 1053 516Z" fill="#62BE90"/>
<mask id="mask0" mask-type="alpha" maskUnits="userSpaceOnUse" x="500" y="130" width="755" height="805">
<path d="M573.723 350.597C572.07 350.094 570.495 349.728 569 349.5C551.657 346.855 533.279 347.19 513.863 350.506C509.025 351.332 504.154 349.235 501.431 345.152C499.292 341.947 500.157 337.616 503.362 335.477C503.713 335.243 504.085 335.041 504.473 334.873C528.159 324.668 547.5 320.91 562.496 323.598C587.356 328.053 681.288 354.413 718.41 429.738C755.532 505.064 805.987 623.453 835.488 656.856C864.988 690.26 923.695 744.56 962.326 705.921C988.079 680.162 1013.76 621.769 1039.37 530.743L949.615 274.31C932.948 226.693 954.359 174.118 999.552 151.694C1006.27 148.359 1012.42 145.461 1018 143C1033.6 136.118 1078.4 131.841 1152.41 130.169C1207.62 128.921 1253.39 172.67 1254.64 227.884C1254.77 233.636 1254.41 239.387 1253.55 245.075L1217.56 483.379C1210.47 516.509 1205.34 540.578 1202.17 555.586C1181.73 652.456 1168.28 720.51 1161.81 759.747C1160.5 767.73 1149.18 862.5 1107.5 902C1065.82 941.5 959.082 948.555 860.045 902.235C820.388 883.687 765.705 835.026 707 804.5C684.769 792.94 662.381 785.456 640.752 785.783C576.862 786.75 550.469 874.084 533 870.5C507 865.167 498 851.5 506 829.5C566.809 764.353 617.084 734.853 656.823 741C724.018 751.394 839.443 831.498 882.89 839.464C934.573 848.939 1006.94 841.447 1031.38 815.497C1046.04 799.926 1066.31 752.065 1092.17 671.913L1092.06 671.876C1092.37 670.889 1091.83 669.829 1090.84 669.51C1089.95 669.221 1088.98 669.64 1088.57 670.49C1057.03 736.558 1033.59 776.334 1018.24 789.817C961.324 839.827 896.477 824.703 846.91 798.948C828.328 789.293 809.602 770.996 790.73 744.057L784.098 747.021C779.908 748.893 774.98 747.305 772.672 743.338C770.316 739.287 771.159 734.134 774.685 731.045L779.417 726.9C771.644 714.423 763.847 700.488 756.025 685.096L750.445 686.088C745.926 686.891 741.529 684.158 740.25 679.75C738.943 675.249 741.008 670.453 745.176 668.309L747.252 667.242C745.634 663.842 744.016 660.38 742.396 656.856L731.313 622.689L723.445 624.088C718.926 624.891 714.529 622.158 713.25 617.75C711.943 613.249 714.008 608.453 718.176 606.309L724.881 602.861L710.846 559.594L702.445 561.088C697.926 561.891 693.529 559.158 692.25 554.75C690.943 550.249 693.008 545.453 697.176 543.309L704.365 539.613L675.705 451.263C670.973 436.674 662.949 423.37 652.253 412.379C648.148 408.159 644.163 404.151 640.299 400.355L633.303 405.453C629.593 408.156 624.443 407.627 621.361 404.226C618.213 400.754 617.967 395.538 620.773 391.784L625.124 385.965C613.03 374.95 602.352 366.411 593.089 360.349L585.658 369.23C582.713 372.75 577.587 373.483 573.774 370.929C569.88 368.321 568.379 363.319 570.194 358.998L573.723 350.597Z" fill="white"/>
</mask>
<g mask="url(#mask0)">
<path d="M573.723 350.597C572.07 350.094 570.495 349.728 569 349.5C551.657 346.855 533.279 347.19 513.863 350.506C509.025 351.332 504.154 349.235 501.431 345.152C499.292 341.947 500.157 337.616 503.362 335.477C503.713 335.243 504.085 335.041 504.473 334.873C528.159 324.668 547.5 320.91 562.496 323.598C587.356 328.053 681.288 354.413 718.41 429.738C755.532 505.064 805.987 623.453 835.488 656.856C864.988 690.26 923.695 744.56 962.326 705.921C988.079 680.162 1013.76 621.769 1039.37 530.743L949.615 274.31C932.948 226.693 954.359 174.118 999.552 151.694C1006.27 148.359 1012.42 145.461 1018 143C1033.6 136.118 1078.4 131.841 1152.41 130.169C1207.62 128.921 1253.39 172.67 1254.64 227.884C1254.77 233.636 1254.41 239.387 1253.55 245.075L1217.56 483.379C1210.47 516.509 1205.34 540.578 1202.17 555.586C1181.73 652.456 1168.28 720.51 1161.81 759.747C1160.5 767.73 1149.18 862.5 1107.5 902C1065.82 941.5 959.082 948.555 860.045 902.235C820.388 883.687 765.705 835.026 707 804.5C684.769 792.94 662.381 785.456 640.752 785.783C576.862 786.75 550.469 874.084 533 870.5C507 865.167 498 851.5 506 829.5C566.809 764.353 617.084 734.853 656.823 741C724.018 751.394 839.443 831.498 882.89 839.464C934.573 848.939 1006.94 841.447 1031.38 815.497C1046.04 799.926 1066.31 752.065 1092.17 671.913L1092.06 671.876C1092.37 670.889 1091.83 669.829 1090.84 669.51C1089.95 669.221 1088.98 669.64 1088.57 670.49C1057.03 736.558 1033.59 776.334 1018.24 789.817C961.324 839.827 896.477 824.703 846.91 798.948C828.328 789.293 809.602 770.996 790.73 744.057L784.098 747.021C779.908 748.893 774.98 747.305 772.672 743.338C770.316 739.287 771.159 734.134 774.685 731.045L779.417 726.9C771.644 714.423 763.847 700.488 756.025 685.096L750.445 686.088C745.926 686.891 741.529 684.158 740.25 679.75C738.943 675.249 741.008 670.453 745.176 668.309L747.252 667.242C745.634 663.842 744.016 660.38 742.396 656.856L731.313 622.689L723.445 624.088C718.926 624.891 714.529 622.158 713.25 617.75C711.943 613.249 714.008 608.453 718.176 606.309L724.881 602.861L710.846 559.594L702.445 561.088C697.926 561.891 693.529 559.158 692.25 554.75C690.943 550.249 693.008 545.453 697.176 543.309L704.365 539.613L675.705 451.263C670.973 436.674 662.949 423.37 652.253 412.379C648.148 408.159 644.163 404.151 640.299 400.355L633.303 405.453C629.593 408.156 624.443 407.627 621.361 404.226C618.213 400.754 617.967 395.538 620.773 391.784L625.124 385.965C613.03 374.95 602.352 366.411 593.089 360.349L585.658 369.23C582.713 372.75 577.587 373.483 573.774 370.929C569.88 368.321 568.379 363.319 570.194 358.998L573.723 350.597Z" fill="#90F6C3"/>
<path fill-rule="evenodd" clip-rule="evenodd" d="M998.124 211.404L1001.25 219.75C1009.74 242.413 1034.99 253.903 1057.66 245.414C1065.77 242.375 1072.8 236.999 1077.86 229.966L1088.7 214.891C1090.31 212.65 1093.44 212.14 1095.68 213.752C1097.71 215.215 1098.35 217.957 1097.17 220.166L1080.09 252.156C1069.54 271.916 1077 296.488 1096.76 307.039C1103.36 310.559 1110.79 312.189 1118.25 311.75L1144.08 310.23C1146.84 310.068 1149.21 312.171 1149.37 314.928C1149.51 317.276 1147.99 319.402 1145.73 320.036L1112.1 329.451C1091.26 335.288 1079.09 356.921 1084.92 377.77C1087.06 385.383 1091.44 392.173 1097.5 397.25L1138.59 431.675C1140.71 433.448 1140.99 436.602 1139.22 438.719C1138.01 440.158 1136.1 440.8 1134.27 440.382L1108.5 434.5C1089.66 430.2 1070.91 441.985 1066.61 460.823C1065.84 464.18 1065.57 467.632 1065.81 471.067L1068.15 504.228C1068.34 506.982 1066.27 509.372 1063.51 509.566C1061.46 509.711 1059.54 508.587 1058.65 506.733L1039.08 465.753C1035.63 458.527 1026.97 455.467 1019.75 458.918C1014.71 461.325 1011.5 466.414 1011.5 472L942.5 316V262.5C956.185 273.111 975.88 270.619 986.491 256.934C992.227 249.535 994.358 239.959 992.299 230.826L988.564 214.258C987.956 211.564 989.648 208.888 992.342 208.281C994.779 207.731 997.247 209.065 998.124 211.404ZM720.823 826L534.823 855.5L490.823 802.5L544.323 756.5L643.323 715.5L927.323 837C902.944 839.083 874.277 836.916 841.323 830.5C808.369 824.084 768.202 822.584 720.823 826ZM1128 383C1121.92 383 1117 378.075 1117 372C1117 365.925 1121.92 361 1128 361C1134.07 361 1139 365.925 1139 372C1139 378.075 1134.07 383 1128 383ZM1111 282C1104.92 282 1100 277.075 1100 271C1100 264.925 1104.92 260 1111 260C1117.07 260 1122 264.925 1122 271C1122 277.075 1117.07 282 1111 282ZM1041 224C1034.92 224 1030 219.075 1030 213C1030 206.925 1034.92 202 1041 202C1047.07 202 1052 206.925 1052 213C1052 219.075 1047.07 224 1041 224ZM962 246C955.925 246 951 241.075 951 235C951 228.925 955.925 224 962 224C968.075 224 973 228.925 973 235C973 241.075 968.075 246 962 246Z" fill="#62BE90"/>
</g>
<path d="M537 586H533C528.582 586 525 589.582 525 594V622C525 626.418 528.582 630 533 630H537C541.418 630 545 626.418 545 622V594C545 589.582 541.418 586 537 586Z" fill="#E0C37C"/>
<path d="M516.5 582.5H509.5C505.082 582.5 501.5 586.082 501.5 590.5V627.5C501.5 631.918 505.082 635.5 509.5 635.5H516.5C520.918 635.5 524.5 631.918 524.5 627.5V590.5C524.5 586.082 520.918 582.5 516.5 582.5Z" fill="#D8D8D8" stroke="#979797"/>
<path fill-rule="evenodd" clip-rule="evenodd" d="M193.5 747H199.5C203.366 747 206.5 750.134 206.5 754V772H186.5V754C186.5 750.134 189.634 747 193.5 747ZM174.611 831L218.361 831.103L231 859.103C215.889 860.248 204.389 860.821 196.5 860.821C188.611 860.821 176.778 860.248 161 859.103L174.611 831Z" fill="#F6D890"/>
<path d="M823.34 120.553C823.648 112.198 823.642 106.013 823.323 102C823.123 99.4721 823.046 96.083 823.094 91.8326C823.103 91.0522 823.565 90.3481 824.277 90.0294C825.285 89.5783 826.468 90.03 826.92 91.0383L828.906 95.4778C829.207 96.1516 829.689 96.7288 830.298 97.1456C832.121 98.3931 834.611 97.9263 835.858 96.1031L840.503 89.314C840.912 88.7171 841.611 88.3872 842.331 88.4512C843.431 88.549 844.244 89.5202 844.146 90.6205L843.364 99.4212C843.315 99.9682 843.38 100.519 843.553 101.04C844.252 103.136 846.517 104.269 848.613 103.57L853.126 102.066C853.757 101.856 854.45 101.972 854.977 102.377C855.853 103.049 856.018 104.305 855.345 105.181L839.524 125.786L767.945 325.395C765.328 332.691 761.099 339.302 755.572 344.736C735.29 364.676 702.684 364.399 682.743 344.117L663.801 324.85C663.612 324.658 663.42 324.467 663.226 324.279C649.553 311.01 627.711 311.337 614.442 325.01L497.1 445.92L484.9 434.08L602.242 313.171C622.051 292.76 654.655 292.271 675.066 312.08C675.355 312.361 675.641 312.645 675.923 312.932L694.866 332.199C708.224 345.786 730.067 345.971 743.654 332.613C747.357 328.973 750.19 324.545 751.942 319.657L823.34 120.553V120.553ZM371.027 438.298C374.422 435.056 379.803 435.181 383.044 438.576C386.286 441.972 386.162 447.352 382.766 450.594L313.765 516.474C301.772 527.925 301.332 546.93 312.783 558.923C313.407 559.577 314.06 560.201 314.74 560.796C329.847 574 352.329 574.206 367.676 561.282L496.921 452.444C500.512 449.42 505.874 449.88 508.898 453.471C511.922 457.062 511.463 462.424 507.872 465.448L378.626 574.286C356.861 592.615 324.978 592.322 303.553 573.596C302.487 572.665 301.465 571.686 300.487 570.663C282.553 551.879 283.242 522.113 302.026 504.179L371.027 438.298Z" fill="#BEA465"/>
<path d="M196.5 652C210.583 652 222 663.417 222 677.5V772C222 776.418 218.418 780 214 780H179C174.582 780 171 776.418 171 772V677.5C171 663.417 182.417 652 196.5 652ZM211 677.5C211 669.492 204.508 663 196.5 663C188.492 663 182 669.492 182 677.5V769H211V677.5ZM163.432 856.84C174.68 859.16 185.703 860.321 196.5 860.321C207.256 860.321 217.948 859.169 228.576 856.866C229.656 856.632 230.721 857.318 230.955 858.397C230.985 858.536 231 858.678 231 858.821V859.331C231 860.502 230.187 861.516 229.044 861.771C218.426 864.137 207.579 865.321 196.5 865.321C185.393 865.321 174.22 864.131 162.982 861.753C161.827 861.508 161 860.488 161 859.307V858.821C161 857.704 161.906 856.798 163.023 856.798C163.16 856.798 163.297 856.812 163.432 856.84Z" fill="#E0C37C"/>
<path fill-rule="evenodd" clip-rule="evenodd" d="M183 768H210C223.255 768 234 778.745 234 792V816.471C234 828.578 224.982 838.789 212.968 840.287C206.477 841.096 201.154 841.5 197 841.5C192.699 841.5 187.048 841.066 180.049 840.199C168.027 838.71 159 828.495 159 816.381V792C159 778.745 169.745 768 183 768Z" fill="#62BE90"/>
<path fill-rule="evenodd" clip-rule="evenodd" d="M178.5 783.608C181.538 783.608 184 786.071 184 789.108V820.108C184 823.146 181.538 825.608 178.5 825.608C175.462 825.608 173 823.146 173 820.108V789.108C173 786.071 175.462 783.608 178.5 783.608ZM196.5 781.217C199.538 781.217 202 783.679 202 786.717V822.717C202 825.754 199.538 828.217 196.5 828.217C193.462 828.217 191 825.754 191 822.717V786.717C191 783.679 193.462 781.217 196.5 781.217ZM214.5 783.608C217.538 783.608 220 786.071 220 789.108V820.108C220 823.146 217.538 825.608 214.5 825.608C211.462 825.608 209 823.146 209 820.108V789.108C209 786.071 211.462 783.608 214.5 783.608Z" fill="#90F6C3"/>
<path fill-rule="evenodd" clip-rule="evenodd" d="M1008.68 248C1046.21 279.825 1067.67 307.825 1073.08 332C1078.48 356.175 1071.33 392.175 1051.61 440C1013.42 408.451 991.696 380.951 986.453 357.5C981.209 334.049 988.62 297.549 1008.68 248Z" fill="white"/>
<path fill-rule="evenodd" clip-rule="evenodd" d="M1009.29 318.35L1012.95 317.652C1014.84 317.291 1016.66 318.523 1017.04 320.41L1029.14 381.532C1029.51 383.428 1028.28 385.269 1026.39 385.645C1026.38 385.646 1026.37 385.648 1026.36 385.65L1022.7 386.348C1020.81 386.709 1018.98 385.477 1018.61 383.59L1006.51 322.468C1006.13 320.572 1007.37 318.73 1009.26 318.355C1009.27 318.353 1009.28 318.352 1009.29 318.35Z" fill="#737373"/>
<path fill-rule="evenodd" clip-rule="evenodd" d="M757.184 243.866C779.114 234.576 792.993 235.454 798.823 246.5C801.17 250.947 812.064 269.849 808.323 271C804.902 272.053 773.323 254.5 766.823 254.5C762.49 254.5 761.49 265.5 763.823 287.5C756.987 271.906 752.821 261.406 751.323 256C749.955 251.058 752.462 245.866 757.184 243.866V243.866Z" fill="#90F6C3"/>
<mask id="mask1" mask-type="alpha" maskUnits="userSpaceOnUse" x="240" y="422" width="467" height="510">
<path d="M411.6 507.533L506.44 469.848L493.5 440L548.251 444.522C557.574 445.292 566.958 444.751 576.13 442.913L680.5 422L707 480.5L672 506C649.333 522.333 621.333 530.5 588 530.5C571.955 530.5 559.231 530.191 549.828 529.573L564 597.5L422.5 608.783L405.32 575.744C393.052 587.476 382.779 595.728 374.5 600.5C353.807 612.428 325.922 621.393 319.349 624.21C308.783 628.737 295.167 635.333 278.5 644C253.167 613.333 240.5 598 240.5 598C240.5 598 249.5 590.667 267.5 576L314.5 544.5L347.689 498.044C354.972 487.85 364.105 479.115 374.614 472.294L417 444.783L411.6 507.533ZM432.63 621.017L564 597.5C567.226 621.348 567.726 648.181 565.5 678C563.274 707.819 561.774 734.986 561 759.5C566.667 773.167 573 785 580 795C587 805 592.833 814.167 597.5 822.5L645 889.5L634.5 903L565.5 932L564 913.5L561 902L492.634 802.631C481.15 785.938 475.007 766.15 475.019 745.888L475.056 687.467L414 764.5C418.453 784.183 421.12 799.35 422 810C422.88 820.65 422.363 831.476 420.446 842.479L422.198 863.665V931.754H283L283.067 916.171C283.127 902.035 293.047 889.859 306.879 886.944L341.944 879.552L338.87 846.25C335.248 834.795 332.958 823.879 332 813.5C331.364 806.607 330.386 789.878 329.066 763.315C327.566 733.126 339.801 703.878 362.351 683.75L432.63 621.017Z" fill="white"/>
</mask>
<g mask="url(#mask1)">
<path d="M411.6 507.533L506.44 469.848L493.5 440L548.251 444.522C557.574 445.292 566.958 444.751 576.13 442.913L680.5 422L707 480.5L672 506C649.333 522.333 621.333 530.5 588 530.5C571.955 530.5 559.231 530.191 549.828 529.573L564 597.5L422.5 608.783L405.32 575.744C393.052 587.476 382.779 595.728 374.5 600.5C353.807 612.428 325.922 621.393 319.349 624.21C308.783 628.737 295.167 635.333 278.5 644C253.167 613.333 240.5 598 240.5 598C240.5 598 249.5 590.667 267.5 576L314.5 544.5L347.689 498.044C354.972 487.85 364.105 479.115 374.614 472.294L417 444.783L411.6 507.533ZM432.63 621.017L564 597.5C567.226 621.348 567.726 648.181 565.5 678C563.274 707.819 561.774 734.986 561 759.5C566.667 773.167 573 785 580 795C587 805 592.833 814.167 597.5 822.5L645 889.5L634.5 903L565.5 932L564 913.5L561 902L492.634 802.631C481.15 785.938 475.007 766.15 475.019 745.888L475.056 687.467L414 764.5C418.453 784.183 421.12 799.35 422 810C422.88 820.65 422.363 831.476 420.446 842.479L422.198 863.665V931.754H283L283.067 916.171C283.127 902.035 293.047 889.859 306.879 886.944L341.944 879.552L338.87 846.25C335.248 834.795 332.958 823.879 332 813.5C331.364 806.607 330.386 789.878 329.066 763.315C327.566 733.126 339.801 703.878 362.351 683.75L432.63 621.017Z" fill="#E8E5DE"/>
<path fill-rule="evenodd" clip-rule="evenodd" d="M334 846L427 841.5V935L294.5 937.5L308.5 884L339.5 871.5L334 846ZM600.5 817.5L668.5 912.5C592.833 929.5 554.333 938 553 938C551.667 938 543 909.167 527 851.5L600.5 817.5Z" fill="#737373"/>
</g>
<path fill-rule="evenodd" clip-rule="evenodd" d="M380.5 424L364.34 442.852C363.237 444.14 363.065 445.982 363.911 447.452L370.082 458.169C371.153 460.03 373.502 460.713 375.404 459.717L393 450.5L380.5 424Z" fill="#737373"/>
<path fill-rule="evenodd" clip-rule="evenodd" d="M703.433 492.522L674.119 419.471C680.973 413.371 686.319 409.782 690.156 408.704C697.908 406.525 707.965 410.37 712.438 407.86C724.13 401.299 719.807 391.594 748.441 377.879C777.075 364.165 781.136 362.925 802.912 364.527C819.318 365.734 820.857 374.22 805.11 386.2C799.956 390.121 773.083 402.356 770.469 404.364C763.399 409.793 759.432 416.251 758.568 423.738L782.176 418.838C785.504 418.147 788.8 420.148 789.723 423.419C790.701 426.884 789.27 430.578 786.214 432.481C767.887 443.891 753.428 450.905 742.836 453.523C739.383 454.377 735.79 456.135 732.056 458.797C728.828 461.099 729.255 471.039 723.774 477.653C720.81 481.23 714.03 486.186 703.433 492.522ZM289.5 639C283.91 645.44 279.076 649.773 275 652C267.461 656.118 262.876 650.271 260 653C256.674 656.157 252.135 662.177 251 665.5C246.333 679.166 236.667 688.333 222 693V677.5L221.062 671.452C219.766 666.871 217.579 668.887 214.5 677.5C213.227 681.062 212 686 211 693C210.219 698.468 190.5 699.5 178 695C170.91 692.447 172.333 682.598 171 677.5C169.22 670.692 167.157 667.336 177.979 652.761C190.596 635.767 202.696 625.893 214.278 623.14C219.336 620.914 223.077 618.368 225.5 615.5C228.201 612.304 228.958 606.066 230.5 603C232.291 599.438 237.124 594.938 245 589.5L289.5 639Z" fill="#737373"/>
<mask id="mask2" mask-type="alpha" maskUnits="userSpaceOnUse" x="356" y="293" width="181" height="250">
<path d="M380.021 466.349C368.025 424.957 361.518 397.174 360.5 383C360.389 381.461 360.039 379.741 359.45 377.839C349.097 344.433 367.169 308.848 400.25 297.5C404.884 295.91 409.683 294.849 414.555 294.337C450.279 290.582 482.282 316.498 486.037 352.221L494.506 432.799L501.287 431.375C505.903 431.452 509.451 431.717 511.932 432.171C514.412 432.625 518.178 433.698 523.229 435.39C528.639 435.784 532.362 436.696 534.395 438.125C536.429 439.553 536.994 441.654 536.091 444.426L528.305 446.503C522.373 449.636 518.353 452.787 516.245 455.956C500.232 480.024 489.775 502.235 480.52 511.206C463.894 527.322 457.127 537.076 430.679 541.131C404.231 545.187 397.224 542.786 379.843 526.644C368.256 515.883 362.141 500.668 361.5 481C369.428 475.236 375.128 470.82 378.602 467.752C379.111 467.303 379.584 466.835 380.021 466.349Z" fill="white"/>
</mask>
<g mask="url(#mask2)">
<path d="M380.021 466.349C368.025 424.957 361.518 397.174 360.5 383C360.389 381.461 360.039 379.741 359.45 377.839C349.097 344.433 367.169 308.848 400.25 297.5C404.884 295.91 409.683 294.849 414.555 294.337C450.279 290.582 482.282 316.498 486.037 352.221L494.506 432.799L501.287 431.375C505.903 431.452 509.451 431.717 511.932 432.171C514.412 432.625 518.178 433.698 523.229 435.39C528.639 435.784 532.362 436.696 534.395 438.125C536.429 439.553 536.994 441.654 536.091 444.426L528.305 446.503C522.373 449.636 518.353 452.787 516.245 455.956C500.232 480.024 489.775 502.235 480.52 511.206C463.894 527.322 457.127 537.076 430.679 541.131C404.231 545.187 397.224 542.786 379.843 526.644C368.256 515.883 362.141 500.668 361.5 481C369.428 475.236 375.128 470.82 378.602 467.752C379.111 467.303 379.584 466.835 380.021 466.349Z" fill="#F6D890"/>
<path fill-rule="evenodd" clip-rule="evenodd" d="M523.099 434.905C515.115 436.169 509.018 439.355 504.808 444.462C491.832 460.203 481.323 490.968 471.064 501.261C448.187 524.215 444.32 523.984 428.749 528.139C413.177 532.295 400.405 526.908 390.444 517.581C383.802 511.364 377.932 496.652 372.833 473.448L358.5 482.5L365.556 510.213C381.775 533.65 389.885 545.369 389.885 545.369C389.885 545.369 410.942 545.214 453.056 544.903L471.223 527.202L548.287 437.375L523.099 434.905Z" fill="#E0C37C"/>
</g>
<path fill-rule="evenodd" clip-rule="evenodd" d="M463.757 395.344C447.121 403.936 426.581 396.867 417.879 379.556C409.177 362.245 415.608 341.247 432.243 332.656C448.879 324.064 469.419 331.133 478.121 348.444C486.823 365.755 480.392 386.753 463.757 395.344Z" fill="#737373"/>
<path d="M445.509 329.968C442.688 330.171 439.885 330.728 437.175 331.636L442.693 335.67L444.928 330.989C444.947 330.949 444.966 330.909 444.986 330.87C445.143 330.554 445.318 330.254 445.509 329.968ZM476.469 346.156C476.44 346.221 476.41 346.286 476.379 346.351L471.446 356.687L480.898 363.596C480.914 363.608 480.93 363.62 480.947 363.632C481.1 357.57 479.601 351.503 476.469 346.156ZM462.489 392.766C461.792 392.513 461.118 392.159 460.489 391.699L456.222 388.58L452.685 395.989C456.064 395.428 459.375 394.352 462.489 392.766ZM420.275 382.736C420.367 382.475 420.474 382.217 420.596 381.962L427.469 367.563L415.041 358.478C414.876 358.357 414.717 358.231 414.564 358.101C413.157 366.62 415.08 375.521 420.275 382.736ZM433.874 332.939C429.972 334.722 426.343 337.281 423.227 340.606C419.411 344.678 416.8 349.435 415.383 354.435C415.724 355.055 416.203 355.611 416.811 356.056L428.784 364.808L441.378 338.424L433.874 332.939ZM467.292 389.788C467.937 389.308 468.569 388.803 469.186 388.272C469.207 388.246 469.227 388.219 469.247 388.191L469.264 388.168L478.481 375.405C479.499 372.91 480.203 370.324 480.593 367.707C480.249 367.06 479.758 366.479 479.128 366.018L470.131 359.441L457.537 385.825L462.26 389.277C463.773 390.383 465.7 390.515 467.292 389.788ZM474.158 342.73C473.06 341.307 471.831 339.955 470.47 338.692C469.818 338.087 469.147 337.513 468.46 336.971L456.4 330.967C454.285 330.414 452.124 330.073 449.953 329.942C448.997 330.408 448.182 331.182 447.671 332.207C447.653 332.244 447.653 332.244 447.635 332.281L445.158 337.471L468.981 354.885L473.672 345.058C474.031 344.307 474.186 343.509 474.158 342.73ZM449.154 396.386C449.206 396.295 449.257 396.201 449.304 396.106C449.323 396.069 449.323 396.069 449.34 396.031L453.757 386.778L429.934 369.364L423.303 383.254C422.901 384.097 422.755 384.998 422.836 385.866C423.399 386.473 423.988 387.063 424.605 387.635C431.486 394.02 440.396 396.908 449.154 396.386ZM467.666 357.64L443.843 340.226L431.249 366.609L455.072 384.024L467.666 357.64ZM482.016 395.687C464.011 414.995 433.961 416.237 414.898 398.461C395.836 380.685 394.979 350.622 412.984 331.313C430.99 312.005 461.039 310.762 480.102 328.539C499.165 346.315 500.022 376.378 482.016 395.687ZM357.537 350.618L367.376 417.134C359.114 412.47 353.479 404.243 352.116 394.854L349.136 374.324C347.858 365.52 351 356.652 357.537 350.618Z" fill="#BEA465"/>
<path fill-rule="evenodd" clip-rule="evenodd" d="M558.5 571L422.5 609L429 624.5L564 597.5C563.386 590.631 562.72 585.465 562 582C561.281 578.536 560.115 574.869 558.5 571Z" fill="#E0C37C"/>
<path fill-rule="evenodd" clip-rule="evenodd" d="M540 798C545.97 798.435 549.004 800.073 549.102 802.914C549.655 818.896 549.454 829.592 548.5 835C542.5 869 540 869 527 872C502.098 877.747 493.764 866.08 502 837L540 798Z" fill="#90F6C3"/>
<path fill-rule="evenodd" clip-rule="evenodd" d="M514.916 574.377L521.737 572.802C526.042 571.808 530.338 574.492 531.331 578.797L538.08 608.029C539.074 612.334 536.39 616.629 532.085 617.623L525.264 619.198C520.959 620.192 516.663 617.507 515.669 613.202L508.921 583.971C507.927 579.666 510.611 575.371 514.916 574.377ZM470.54 585.53L477.332 583.836C481.619 582.767 485.961 585.376 487.03 589.663L494.288 618.772C495.357 623.059 492.748 627.401 488.461 628.47L481.669 630.163C477.382 631.232 473.04 628.623 471.971 624.336L464.713 595.228C463.644 590.941 466.253 586.599 470.54 585.53ZM428.06 595.957L434.953 594.742C439.305 593.974 443.454 596.88 444.221 601.231L449.43 630.775C450.198 635.126 447.292 639.276 442.941 640.043L436.048 641.258C431.696 642.025 427.547 639.12 426.78 634.769L421.57 605.225C420.803 600.874 423.709 596.724 428.06 595.957Z" fill="#F6D890"/>
<path fill-rule="evenodd" clip-rule="evenodd" d="M521.424 589.84C518.67 589.648 516.593 587.258 516.785 584.504C516.978 581.749 519.367 579.672 522.122 579.865C524.877 580.057 526.954 582.446 526.761 585.201C526.568 587.956 524.179 590.033 521.424 589.84ZM477.317 600.877C474.56 600.733 472.441 598.38 472.586 595.622C472.73 592.865 475.083 590.746 477.841 590.891C480.598 591.036 482.717 593.388 482.572 596.146C482.428 598.903 480.075 601.022 477.317 600.877ZM433.75 611.74C431.009 611.403 429.06 608.909 429.396 606.168C429.733 603.427 432.228 601.478 434.968 601.815C437.709 602.151 439.658 604.646 439.322 607.387C438.985 610.127 436.491 612.076 433.75 611.74Z" fill="#BEA465"/>
<path fill-rule="evenodd" clip-rule="evenodd" d="M393 494C389.134 494 386 490.866 386 487C386 483.134 389.134 480 393 480C396.866 480 400 483.134 400 487C400 490.866 396.866 494 393 494ZM453 479C449.134 479 446 475.866 446 472C446 468.134 449.134 465 453 465C456.866 465 460 468.134 460 472C460 475.866 456.866 479 453 479ZM427 516C423.134 516 420 512.866 420 509C420 505.134 423.134 502 427 502C430.866 502 434 505.134 434 509C434 512.866 430.866 516 427 516Z" fill="#E0C37C"/>
<path fill-rule="evenodd" clip-rule="evenodd" d="M318.5 923H420.5C422.985 923 425 925.015 425 927.5C425 929.985 422.985 932 420.5 932H303H283V899.198C283 894.989 285.916 891.343 290.021 890.418L318.5 884V923ZM633.508 904.357C633.2 904.6 632.855 904.806 632.476 904.967L568.041 932.318C565.753 933.289 563.111 932.222 562.14 929.934C561.782 929.091 561.701 928.2 561.856 927.362L553.817 906.909C550.313 897.996 554.402 887.9 563.121 883.938L597.985 868.092C601.738 866.386 606.171 867.449 608.743 870.671L629.38 896.527C629.611 896.455 629.843 896.403 630.076 896.369L641.481 882.285C643.045 880.354 645.879 880.056 647.81 881.62C649.742 883.184 650.04 886.018 648.476 887.949L636.519 902.715C635.74 903.676 634.647 904.233 633.508 904.357Z" fill="#E0C37C"/>
<path fill-rule="evenodd" clip-rule="evenodd" d="M828 440C822.477 440 818 435.523 818 430C818 424.477 822.477 420 828 420C833.523 420 838 424.477 838 430C838 435.523 833.523 440 828 440ZM854 510C848.477 510 844 505.523 844 500C844 494.477 848.477 490 854 490C859.523 490 864 494.477 864 500C864 505.523 859.523 510 854 510ZM882 576C876.477 576 872 571.523 872 566C872 560.477 876.477 556 882 556C887.523 556 892 560.477 892 566C892 571.523 887.523 576 882 576Z" fill="#90F6C3"/>
<path d="M645.5 772C650.194 772 654 768.194 654 763.5C654 758.806 650.194 755 645.5 755C640.806 755 637 758.806 637 763.5C637 768.194 640.806 772 645.5 772Z" fill="#90F6C3"/>
<path d="M717.5 794C722.194 794 726 790.194 726 785.5C726 780.806 722.194 777 717.5 777C712.806 777 709 780.806 709 785.5C709 790.194 712.806 794 717.5 794Z" fill="#90F6C3"/>
<path opacity="0.591634" d="M1212.86 337.347L1219.31 338.254L1218.52 343.874L1223.36 344.554L1222.34 351.781L1217.51 351.101L1214.72 370.933L1208.27 370.026L1192.64 347.605L1193.65 340.379L1212.07 342.968L1212.86 337.347ZM1210.1 363.335L1211.91 350.462L1202 349.07L1210.1 363.335ZM1227.76 321.165C1226.06 333.251 1219.97 338.248 1210.36 336.896C1200.79 335.551 1196.35 329.076 1198.05 316.99C1199.74 304.947 1205.84 299.907 1215.37 301.247C1224.94 302.592 1229.45 309.122 1227.76 321.165ZM1221.31 319.761C1222.27 312.958 1219.52 309.411 1214.25 308.669C1209.01 307.933 1205.43 310.592 1204.48 317.395C1203.52 324.197 1206.19 327.733 1211.46 328.475C1216.78 329.222 1220.36 326.563 1221.31 319.761ZM1222.62 266.166L1229.07 267.073L1228.28 272.693L1233.12 273.373L1232.1 280.599L1227.26 279.919L1224.48 299.752L1218.03 298.845L1202.39 276.424L1203.41 269.198L1221.83 271.787L1222.62 266.166ZM1219.84 291.154L1221.65 278.281L1211.75 276.889L1219.84 291.154Z" fill="#62BE90"/>
</svg>
