<svg width="1440" height="1024" viewBox="0 0 1440 1024" fill="none" xmlns="http://www.w3.org/2000/svg">
<rect width="1440" height="1024" fill="white"/>
<path d="M707 368.427C707 363.456 702.971 359.427 698 359.427C693.029 359.427 689 363.456 689 368.427V968.427C689 973.397 693.029 977.427 698 977.427C702.971 977.427 707 973.397 707 968.427V368.427Z" fill="#2B254E"/>
<path fill-rule="evenodd" clip-rule="evenodd" d="M352 396.426L344.5 431.426L298.5 443.426L217 466.426L245 431.426L199.5 440.426L239.5 417L204.5 416.926L168 393.426L211.5 396.5C252.167 401.451 272.5 403.926 272.5 403.926C272.5 403.926 252.167 391.426 211.5 366.426L352 396.426ZM1086 423.426L1226.5 393.426C1204.83 408.475 1194 416 1194 416C1194 416 1206.67 418.475 1232 423.426L1272 450.426L1232 439.5L1180.5 439.426L1238.5 467.426L1174.5 450.426L1221 493.426L1146.5 458.426H1093.5L1086 423.426ZM711.016 140.406L709.828 112.378L698.83 90.8199L727.742 111.156L726.152 85.4673L693.106 61.3711L706.331 63.8941L733.406 80.0243L741.53 106.216L748.676 66.8688L754.877 98.7717L771.061 76.8564L760.293 118.302L781.5 93.9264L763 144.426L711.016 140.406ZM583.338 726.243L609.716 743.825L603.906 790.662L595.051 874.17L586.911 862.214L583.411 831.214L549.911 874.214L564.248 819.86L542.911 862.214L523.911 885.214L530.411 856.714C543.411 824.048 549.911 807.714 549.911 807.714C549.911 807.714 543.411 818.381 530.411 839.714L510.476 849.24L583.338 726.243ZM718.348 748.252L749.013 756.288L758.768 802.465L777.583 884.306L765.5 874L753.74 846.615L752.592 847.48L752.5 905.5L746 893L734.5 817.5H733L729 874L722 909.5H720L715.5 874V843L707 867.5L689.5 888.27L718.348 748.252Z" fill="#FFD25B"/>
<path fill-rule="evenodd" clip-rule="evenodd" d="M698 359L645.5 493.5H773L735.5 369L698 359Z" fill="#FFD25B"/>
<mask id="mask0" mask-type="alpha" maskUnits="userSpaceOnUse" x="552" y="483" width="238" height="303">
<path d="M579.5 664.427L558.072 720.468C551.841 736.762 550.769 754.577 555 771.5C558.667 776.834 566.833 780.5 579.5 782.5C592.167 784.5 601.352 784.552 607.055 782.654L614.019 775.108C622.919 765.464 629.834 754.162 634.369 741.847L690.217 590.194L698 590V735.168C698 751.715 702.704 767.92 711.564 781.895C718.855 784.298 727.333 785.5 737 785.5C746.667 785.5 753.167 783.667 756.5 780C767.252 767.293 773.945 751.652 775.714 735.101L790 601.427L773 493.5C762.778 490.834 750.278 489.5 735.5 489.5C720.722 489.5 690.722 487.642 645.5 483.927L579.5 664.427Z" fill="white"/>
</mask>
<g mask="url(#mask0)">
<path d="M579.5 664.427L558.072 720.468C551.841 736.762 550.769 754.577 555 771.5C558.667 776.834 566.833 780.5 579.5 782.5C592.167 784.5 601.352 784.552 607.055 782.654L614.019 775.108C622.919 765.464 629.834 754.162 634.369 741.847L690.217 590.194L698 590V735.168C698 751.715 702.704 767.92 711.564 781.895C718.855 784.298 727.333 785.5 737 785.5C746.667 785.5 753.167 783.667 756.5 780C767.252 767.293 773.945 751.652 775.714 735.101L790 601.427L773 493.5C762.778 490.834 750.278 489.5 735.5 489.5C720.722 489.5 690.722 487.642 645.5 483.927L579.5 664.427Z" fill="#FF6D5B"/>
<path fill-rule="evenodd" clip-rule="evenodd" d="M648.666 703.518L613.5 711L650.236 673.559L639.973 611.436L677.374 633.424L648.666 703.518Z" fill="#FFD25B"/>
</g>
<path fill-rule="evenodd" clip-rule="evenodd" d="M770 367.927C797.333 387.26 825.167 400.927 853.5 408.927C881.833 416.927 963.667 416.927 1099 408.927V493.5L924.059 499.929C913.748 500.307 903.441 499.088 893.504 496.315L790 467.427L853.5 648.427L830.708 651.118L818.5 639.5L813.5 651L783.249 656.722L773 639.5L762.658 659.153L718 664.427L729 371.927L770 367.927ZM662.5 359.427L700.5 365.927L596.5 664.427L553 655L549 642.5L537.31 651.715L527 649.5V627.5L507.615 646.626L483 642.427L596.5 437.927C561.167 452.976 535.167 460.5 518.5 460.5C501.833 460.5 442.167 460.5 339.5 460.5V421V381.927C457.167 375.26 529.667 371.927 557 371.927C584.333 371.927 619.5 367.76 662.5 359.427Z" fill="#2B254E"/>
<path fill-rule="evenodd" clip-rule="evenodd" d="M1099 408.927H1186.75C1190.75 408.927 1194 412.173 1194 416.177C1194 420.181 1190.75 423.427 1186.75 423.427H1099V408.927ZM252.25 408.927H340V423.427H252.25C248.246 423.427 245 420.181 245 416.177C245 412.173 248.246 408.927 252.25 408.927Z" fill="#847DAA"/>
<path fill-rule="evenodd" clip-rule="evenodd" d="M755.145 392.926L765.432 552.443L765.5 552.426L767 568.5L761.5 568.426V553.867L752.162 554.726L753.5 569H748V555.109L739.18 555.92L740.5 570H735V556.304L726 557.132V571H721.5L721.986 556.899L718.229 392.926C704.773 392.926 693.197 392.926 692.5 392.926C691 392.926 672 355.926 742 361.426C766.571 363.357 778.71 357.832 786 361.426C790.861 363.822 791.694 370.489 788.5 381.426C776.834 389.093 766.834 392.926 758.5 392.926C757.583 392.926 756.453 392.926 755.145 392.926Z" fill="#60588E"/>
<path fill-rule="evenodd" clip-rule="evenodd" d="M551.5 262.5C556.014 282.356 569.014 297.831 590.5 308.927C611.986 320.022 644.986 328.522 689.5 334.427L822.316 334.492L845.361 324.316L858.157 318.665C872.544 312.312 885.039 302.338 894.424 289.717L899 283.562C898.18 279.021 885.347 271.667 860.5 261.5C835.653 251.334 803.291 240.528 763.414 229.084C747.42 218.279 723.711 215.69 692.286 221.317C663.976 226.386 620.392 226.346 568 247.5C564.157 249.052 558.657 254.052 551.5 262.5Z" fill="#2B254E"/>
<path fill-rule="evenodd" clip-rule="evenodd" d="M650.5 353.427C644.5 354.76 641.5 359.593 641.5 367.927C641.5 376.26 658.5 384.618 692.5 393C696.724 386.843 700.891 382.51 705 380C709.109 377.49 716.442 374.799 727 371.927L650.5 353.427Z" fill="#847DAA"/>
<mask id="mask1" mask-type="alpha" maskUnits="userSpaceOnUse" x="608" y="196" width="222" height="175">
<path d="M718.862 370.412C741.226 370.412 750.278 370.992 778.734 364.578C786.102 362.917 787.177 358.648 793.373 355.106C797.321 352.848 802.351 349.637 805.727 348.277C829.127 338.849 829.403 308.624 829.403 283.314C829.403 247.035 786.658 213.836 756.077 201.161C738.883 194.034 741.125 199.593 718.862 199.593C703.473 199.593 714.884 193.704 701.537 198.849C661.235 214.386 613.307 244.321 609.009 279.965C605.864 306.049 614.155 343.274 644.564 355.161C646.372 355.868 654.48 358.535 658.172 360.266C661.701 361.921 662.573 364.969 664.269 365.658C680.38 372.203 698.34 370.412 718.862 370.412Z" fill="white"/>
</mask>
<g mask="url(#mask1)">
<path d="M709.798 369.933C732.039 372.271 740.981 373.794 769.952 370.39C777.453 369.508 778.968 365.375 785.501 362.499C789.663 360.667 795.001 357.999 798.501 356.999C822.757 350.069 826.191 320.038 828.837 294.867C832.629 258.786 793.588 221.301 764.501 205.499C748.145 196.614 749.794 202.377 727.653 200.05C712.348 198.441 724.313 193.777 710.501 197.499C668.795 208.739 618.001 233.499 610.001 268.499C604.146 294.111 608.501 331.999 637.501 346.999C639.225 347.891 647.01 351.392 650.501 353.499C653.838 355.514 654.385 358.637 656.001 359.499C671.339 367.692 689.388 367.788 709.798 369.933Z" fill="#FF6D5B"/>
</g>
<path fill-rule="evenodd" clip-rule="evenodd" d="M676.488 245.379L690.16 247.3C695.046 247.987 699.281 251.032 701.488 255.444C707.058 266.58 709.731 272.946 709.507 274.543C709.283 276.137 705.119 280.453 697.015 287.491C693.739 290.337 689.39 291.624 685.092 291.02L669.249 288.794C664.615 288.142 660.551 285.366 658.259 281.287C653.978 273.668 651.994 268.743 652.307 266.513C652.625 264.257 656.099 259.023 662.73 250.81C666.042 246.707 671.266 244.645 676.488 245.379ZM774.969 256.762L784.806 257.622C789.984 258.075 794.558 261.176 796.896 265.818C802.116 276.182 804.658 282.152 804.52 283.725C804.384 285.286 800.982 289.651 794.316 296.819C791.166 300.206 786.631 301.95 782.024 301.547L770.036 300.498C765.086 300.065 760.671 297.208 758.248 292.87C754.371 285.928 752.527 281.372 752.717 279.202C752.911 276.985 755.708 271.748 761.109 263.493C764.135 258.866 769.461 256.28 774.969 256.762Z" fill="white"/>
<path fill-rule="evenodd" clip-rule="evenodd" d="M686 274C682.134 274 679 270.866 679 267C679 263.134 682.134 260 686 260C689.866 260 693 263.134 693 267C693 270.866 689.866 274 686 274ZM780.819 285.182C776.953 285.182 773.819 282.048 773.819 278.182C773.819 274.316 776.953 271.182 780.819 271.182C784.685 271.182 787.819 274.316 787.819 278.182C787.819 282.048 784.685 285.182 780.819 285.182ZM735.634 264.909C735.908 264.248 736.514 263.784 737.223 263.692C738.319 263.549 739.322 264.322 739.464 265.417L744.67 305.462C744.691 305.624 744.692 305.787 744.674 305.949C744.547 307.046 743.555 307.833 742.458 307.707L721.634 305.304C721.45 305.283 721.269 305.236 721.097 305.164C720.077 304.741 719.593 303.571 720.016 302.551L735.634 264.909ZM646.74 305.422L670.357 306.276L687.864 320.089L708.858 312.105L724.369 326.057L748.715 315.834L761.882 324.937L774.397 317.546L802.423 324.107L774.99 326.026L756.873 339.322L744.923 326.123L721.68 337.773L705.066 322.395L688.701 332.06L668.955 314.895L646.74 305.422Z" fill="#2B254E"/>
<path fill-rule="evenodd" clip-rule="evenodd" d="M696.439 142.026L693.5 174.926L771 184.426L772.496 150.395C772.791 143.683 768.276 137.708 761.739 136.158C748.107 132.926 737.396 130.869 729.606 129.988C723.395 129.285 716.832 129.049 709.918 129.28C702.851 129.515 697.069 134.983 696.439 142.026Z" fill="#60588E"/>
<mask id="mask2" mask-type="alpha" maskUnits="userSpaceOnUse" x="551" y="137" width="348" height="148">
<path d="M698 137.5C677.667 180.833 648.667 210.142 611 225.427C586.128 235.519 568.433 241.352 559.196 251.133C556.268 254.234 553.703 258.023 551.5 262.5C560.318 265.273 566.818 267.107 571 268C622.5 279 660.832 272.913 684 268.5C695.06 266.393 711.84 262.311 734.341 256.251C747.215 252.785 760.652 251.927 773.861 253.73C828.924 261.242 862.637 266.999 875 271C888.82 275.473 896.714 279.948 898.683 284.427C900.162 274.069 896.464 265.93 887.589 260.011C883.265 257.128 858.04 251.439 839.5 239.427C829.397 232.88 815.282 220.379 797.156 201.924C786.357 190.929 778.833 177.144 775.426 162.113L772 147L698 137.5Z" fill="white"/>
</mask>
<g mask="url(#mask2)">
<path d="M698 137.5C677.667 180.833 648.667 210.142 611 225.427C586.128 235.519 568.433 241.352 559.196 251.133C556.268 254.234 553.703 258.023 551.5 262.5C560.318 265.273 566.818 267.107 571 268C622.5 279 660.832 272.913 684 268.5C695.06 266.393 711.84 262.311 734.341 256.251C747.215 252.785 760.652 251.927 773.861 253.73C828.924 261.242 862.637 266.999 875 271C888.82 275.473 896.714 279.948 898.683 284.427C900.162 274.069 896.464 265.93 887.589 260.011C883.265 257.128 858.04 251.439 839.5 239.427C829.397 232.88 815.282 220.379 797.156 201.924C786.357 190.929 778.833 177.144 775.426 162.113L772 147L698 137.5Z" fill="#60588E"/>
<mask id="mask3" mask-type="alpha" maskUnits="userSpaceOnUse" x="652" y="141" width="92" height="70">
<path d="M652.5 200.5L684.5 179.5L698 211L714 179.5L744 175.5L714 162L693.5 141L652.5 200.5Z" fill="white"/>
</mask>
<g mask="url(#mask3)">
<path d="M652.5 200.5L684.5 179.5L698 211L714 179.5L744 175.5L714 162L693.5 141L652.5 200.5Z" fill="#2B254E"/>
<path fill-rule="evenodd" clip-rule="evenodd" d="M706 154.5L684.5 206L698 218.5L758.5 176L706 154.5Z" fill="#FFD25B"/>
</g>
</g>
<path d="M343 179C365.644 179 384 160.644 384 138C384 115.356 365.644 97 343 97C320.356 97 302 115.356 302 138C302 160.644 320.356 179 343 179Z" fill="#EBEEF6"/>
<path fill-rule="evenodd" clip-rule="evenodd" d="M433 247L426 268.5C409.333 268.5 401 268.5 401 268.5C401 268.5 409.333 270.667 426 275C428.667 292.667 430 301.5 430 301.5C430 301.5 431.667 293.5 435 277.5L456.5 272.5L435 268.5L433 247Z" fill="#FFD25B"/>
<path fill-rule="evenodd" clip-rule="evenodd" d="M946 138L939 159.5C922.333 159.5 914 159.5 914 159.5C914 159.5 922.333 161.667 939 166C941.667 183.667 943 192.5 943 192.5C943 192.5 944.667 184.5 948 168.5L969.5 163.5L948 159.5L946 138Z" fill="#FFD25B"/>
<path fill-rule="evenodd" clip-rule="evenodd" d="M993.216 332L987.919 348.174C975.306 348.174 969 348.174 969 348.174C969 348.174 975.306 349.804 987.919 353.064C989.937 366.355 990.946 373 990.946 373C990.946 373 992.207 366.982 994.73 354.945L1011 351.183L994.73 348.174L993.216 332Z" fill="#FFD25B"/>
<path fill-rule="evenodd" clip-rule="evenodd" d="M536.333 135.5L531.667 149.702C520.556 149.702 515 149.702 515 149.702C515 149.702 520.556 151.133 531.667 153.995C533.444 165.665 534.333 171.5 534.333 171.5C534.333 171.5 535.444 166.216 537.667 155.647L552 152.344L537.667 149.702L536.333 135.5Z" fill="#FFD25B"/>
<path fill-rule="evenodd" clip-rule="evenodd" d="M434.713 576.083C434.716 576.119 434.716 576.155 434.713 576.191C434.514 578.459 422.586 580.432 407.91 579.146C393.235 577.859 381.802 575.044 382.001 572.775C382.011 572.655 382.054 572.539 382.128 572.427L386 553L385.814 534.194L388.102 510.633L439.681 515.093L432.567 534.901L434.792 576.088L434.713 576.083ZM1069.33 612.916C1069.34 612.949 1069.35 612.984 1069.35 613.02C1069.75 615.262 1058.74 620.255 1044.23 622.811C1029.72 625.367 1017.95 625.606 1017.55 623.364C1017.53 623.232 1017.55 623.095 1017.6 622.953L1017.5 605.999L1009.07 585.123C1007.7 581.742 1007.04 578.12 1007.11 574.475L1007.36 561.759L1058.34 552.718C1060.6 559.336 1061.99 565.097 1062.5 570C1063.01 574.902 1063.01 582.402 1062.5 592.499L1069.4 612.9L1069.33 612.916ZM962.75 606.66C962.753 606.696 962.754 606.732 962.751 606.768C962.592 609.04 950.7 611.22 936.004 610.19C921.308 609.16 909.828 606.544 909.987 604.273C909.995 604.156 910.034 604.043 910.102 603.932L913 585.999L913.127 565.631L915.003 542.033L966.652 545.593L959.5 580.499L962.828 606.664L962.75 606.66Z" fill="#847DAA"/>
<path fill-rule="evenodd" clip-rule="evenodd" d="M413.549 517.151C399.493 515.919 388.259 513.082 388.458 510.813C388.656 508.545 400.21 507.705 414.266 508.937C428.321 510.169 439.555 513.006 439.357 515.275C439.158 517.543 427.604 518.383 413.549 517.151ZM1033.63 561.47C1019.73 563.917 1008.15 564.084 1007.75 561.842C1007.36 559.599 1018.3 555.797 1032.2 553.349C1046.09 550.901 1057.68 550.735 1058.07 552.977C1058.47 555.22 1047.53 559.022 1033.63 561.47ZM940.56 548.107C926.485 547.12 915.203 544.479 915.362 542.208C915.521 539.936 927.059 538.894 941.133 539.881C955.208 540.867 966.49 543.509 966.331 545.78C966.172 548.052 954.634 549.093 940.56 548.107Z" fill="#60588E"/>
<path d="M425.864 552.832L425.337 558.848L419.648 558.351L419.253 562.863L411.937 562.223L412.332 557.711L392.255 555.954L392.781 549.938L414.361 534.518L421.677 535.158L420.174 552.335L425.864 552.832ZM400.624 551.881L412.534 552.923L413.457 542.368L400.624 551.881ZM1054.76 592.747L1055.81 598.695L1050.18 599.686L1050.97 604.147L1043.74 605.422L1042.95 600.962L1023.11 604.461L1022.06 598.514L1038.91 578.034L1046.14 576.759L1049.14 593.739L1054.76 592.747ZM1030.13 598.361L1041.91 596.285L1040.07 585.851L1030.13 598.361ZM938 594C927.151 594 922 589.022 922 579.961C922 570.938 927.151 566 938 566C948.81 566 954 570.977 954 579.961C954 588.983 948.81 594 938 594ZM938 589C944.183 589 947 585.787 947 580.459C947 575.172 944.183 572 938 572C931.818 572 929 575.131 929 580.459C929 585.827 931.818 589 938 589Z" fill="white"/>
<path fill-rule="evenodd" clip-rule="evenodd" d="M422.954 444.113L427.165 444.994L417.667 512.37C417.512 513.471 416.494 514.238 415.393 514.083C415.349 514.077 415.305 514.069 415.262 514.06C414.077 513.812 413.287 512.688 413.456 511.489L422.954 444.113ZM947.34 475.003L951.565 475.811L943.245 543.342C943.109 544.446 942.104 545.23 941 545.094C940.956 545.089 940.913 545.082 940.869 545.073C939.68 544.846 938.871 543.736 939.019 542.535L947.34 475.003ZM1017.34 489.055L1021.61 488.517L1034.57 555.314C1034.78 556.406 1034.07 557.462 1032.97 557.674C1032.93 557.682 1032.89 557.689 1032.84 557.695C1031.64 557.846 1030.53 557.04 1030.3 555.852L1017.34 489.055Z" fill="#2B254E"/>
<path fill-rule="evenodd" clip-rule="evenodd" d="M330 163.5C331.918 163.5 333.402 162.925 334.5 161.5C335.3 160.463 336 158.78 336 157.5C336 155.887 335.707 154.138 334.5 153C333.434 151.995 331.554 151.5 330 151.5C328.417 151.5 326.572 151.963 325.5 153C324.327 154.134 324 155.913 324 157.5C324 160.538 326.686 163.5 330 163.5Z" fill="#C1C6D3"/>
<path fill-rule="evenodd" clip-rule="evenodd" d="M353 132C355.876 132 358.102 131.137 359.75 129C360.95 127.444 362 124.92 362 123C362 120.58 361.56 117.957 359.75 116.25C358.152 114.742 355.331 114 353 114C350.626 114 347.858 114.695 346.25 116.25C344.491 117.951 344 120.62 344 123C344 127.556 348.029 132 353 132Z" fill="#C1C6D3"/>
<path fill-rule="evenodd" clip-rule="evenodd" d="M365.884 148.316C367.104 147.554 367.819 146.598 367.952 145.256C368.048 144.278 367.825 142.929 367.316 142.115C366.675 141.089 365.793 140.094 364.573 139.849C363.496 139.634 362.103 140.066 361.115 140.684C360.108 141.313 359.119 142.341 358.849 143.426C358.554 144.614 359.053 145.875 359.683 146.885C360.891 148.817 363.777 149.633 365.884 148.316Z" fill="#C1C6D3"/>
</svg>
